<svg height="50" viewBox="0 0 512 512" width="50" xmlns="http://www.w3.org/2000/svg"><path d="m439.964844 486.578125 64.441406 17.828125-17.824219-64.441406c16.074219-24.742188 25.417969-54.261719 25.417969-85.964844 0-87.261719-70.738281-158-158-158s-158 70.738281-158 158 70.738281 158 158 158c31.703125 0 61.222656-9.34375 85.964844-25.421875zm0 0" fill="#2a51ff"/><path d="m195.5 0-80 195.5 80 195.5c107.800781 0 195.5-87.699219 195.5-195.5s-87.699219-195.5-195.5-195.5zm0 0" fill="#10beff"/><path d="m0 195.5c0 35.132812 9.351562 69.339844 27.109375 99.371094l-26.390625 95.40625 95.410156-26.386719c30.03125 17.757813 64.238282 27.109375 99.371094 27.109375v-391c-107.800781 0-195.5 87.699219-195.5 195.5zm0 0" fill="#5aecff"/><path d="m180.5 271h30v30h-30zm0 0"/><path d="m180.5 204.394531v36.605469h15l10-25.167969-10-25.167969zm0 0" fill="#292c32"/><path d="m135.5 150h30c0-16.542969 13.457031-30 30-30l10-15-10-15c-33.085938 0-60 26.914062-60 60zm0 0" fill="#292c32"/><path d="m195.5 90v30c16.542969 0 30 13.457031 30 30 0 8.519531-3.46875 16.382812-9.765625 22.144531l-20.234375 18.519531v50.335938h15v-23.394531l25.488281-23.328125c12.398438-11.347656 19.511719-27.484375 19.511719-44.277344 0-33.085938-26.914062-60-60-60zm0 0"/></svg>